<?xml version="1.0" encoding="utf-8"?>
<svg id="master-artboard" viewBox="0 0 376.24798583984375 370.8631286621094" version="1.1" xmlns="http://www.w3.org/2000/svg" x="0px" y="0px" style="enable-background:new 0 0 1400 980;" width="376.24798583984375px" height="370.8631286621094px"><rect id="ee-background" x="0" y="0" width="376.24798583984375" height="370.8631286621094" style="fill: white; fill-opacity: 0; pointer-events: none;"/><path d="m346.839 90.839c0-50.169-40.67-90.839-90.839-90.839-21.672 0-41.571 7.589-57.185 20.255-20.532 16.655-30.148 42.087-30.148 70.584 0 50.169 37.164 88.828 87.333 88.828 28.502 0 53.938-11.116 70.593-31.654 12.66-15.612 20.246-35.508 20.246-57.174z" fill="#6f6571" transform="matrix(1.9141197204589844, -0.008301551453769207, 0.008301551453769207, 1.9141197204589844, -300.7594038957269, 10.506136097105383)"/><path d="m303.677 132.129h-95.355c-2.952 0-5.677-1.573-7.153-4.129s-1.476-5.702 0-8.258l47.677-82.581c2.952-5.113 11.355-5.113 14.306 0l47.677 82.581c1.476 2.556 1.476 5.702 0 8.258-1.474 2.556-4.2 4.129-7.152 4.129zm-81.048-16.516h66.742l-33.371-57.807z" fill="#b3e59f" transform="matrix(-0.033166036009788506, 1.9138610363006592, -1.9138610363006592, -0.033166036009788506, 390.2570277582204, -315.66979233041536)" style="fill: rgb(255, 255, 255);"/><path d="m269.419 168.258c-50.169 0-90.839-40.67-90.839-90.839 0-21.665 7.576-41.553 20.234-57.165-20.54 16.654-33.654 42.08-33.654 70.584 0 50.169 40.67 90.839 90.839 90.839 28.504 0 53.938-13.125 70.593-33.664-15.611 12.659-35.507 20.245-57.173 20.245z" fill="#5d5360" transform="matrix(1.9141197204589844, -0.008301551453769207, 0.008301551453769207, 1.9141197204589844, -300.7594038957269, 10.506136097105383)"/><g id="g-1" transform="matrix(-0.049886468797922134, 1.5159329175949097, -1.5159329175949097, -0.049886468797922134, 795.2507915860967, 33.19458755239714)">
	<g id="g-2">
		<path class="st0" d="M103,336.5L53,424h100L103,336.5" style="fill: rgb(255, 255, 255);"/>
	</g>
</g></svg>