<?xml version="1.0" encoding="utf-8"?>
<svg id="master-artboard" viewBox="0 0 975.8423461914062 993.5369873046875" version="1.1" xmlns="http://www.w3.org/2000/svg" x="0px" y="0px" style="enable-background:new 0 0 336 235.2;" width="975.8423461914062px" height="993.5369873046875px"><g transform="matrix(2.642484188079834, 0, 0, 2.642484188079834, -11.901092529296875, 17.327272415161133)"><rect id="ee-background" x="0" y="0" width="975.8423461914062" height="993.5369873046875" style="fill: white; fill-opacity: 0; pointer-events: none;"/><g transform="matrix(1.914119543507695, -0.008301547914015826, 0.008301547914015826, 1.914119543507695, -300.75940368461244, 12.873595490023938)"><path d="m346.839 90.839c0-50.169-40.67-90.839-90.839-90.839-21.672 0-41.571 7.589-57.185 20.255-20.532 16.655-30.148 42.087-30.148 70.584 0 50.169 37.164 88.828 87.333 88.828 28.502 0 53.938-11.116 70.593-31.654 12.66-15.612 20.246-35.508 20.246-57.174z" fill="#6f6571"/><path d="m269.419 168.258c-50.169 0-90.839-40.67-90.839-90.839 0-21.665 7.576-41.553 20.234-57.165-20.54 16.654-33.654 42.08-33.654 70.584 0 50.169 40.67 90.839 90.839 90.839 28.504 0 53.938-13.125 70.593-33.664-15.611 12.659-35.507 20.245-57.173 20.245z" fill="#5d5360"/></g></g><g transform="matrix(4.90000057220459, 0, 0, 4.90000057220459, -2744.241180419922, -81.4759521484375)"><g id="g-1" transform="matrix(1, 0, 0, 1, 0, 0)">
	<g id="g-2">
		<path class="st0" d="M652,46c27.6,0,50,22.4,50,50s-22.4,50-50,50s-50-22.4-50-50S624.4,46,652,46z" style="fill: rgb(51, 51, 51);"/>
	</g>
</g></g><g transform="matrix(3.8026065826416016, 0, 0, 3.8026065826416016, -2027.1842956542969, 23.986053466796875)"><g id="g-5" transform="matrix(1, 0, 0, 1, 0, 0)">
	<g id="g-6">
		<path class="st0" d="M652,46c27.6,0,50,22.4,50,50s-22.4,50-50,50s-50-22.4-50-50S624.4,46,652,46z" style="fill: rgb(111, 101, 113);"/>
	</g>
</g></g><path d="M 733.5928344726562 765.5400390625 L 571.1494750976562 571.5103759765625 L 523.7701416015625 594.0719604492188 L 609.504150390625 830.9686279296875" style="fill: rgb(51, 51, 51); fill-opacity: 1; stroke: rgb(0, 0, 0); stroke-opacity: 1; stroke-width: 0; paint-order: fill;"/></svg>